HIERARCHY
ROOT Hips
{
	OFFSET 0.00000 0.00000 0.00000
	CHANNELS 6 Xposition Yposition Zposition Zrotation Yrotation Xrotation 
	JOINT LHipJoint
	{
		OFFSET 0 0 0
		CHANNELS 3 Zrotation Yrotation Xrotation
		JOINT LeftUpLeg
		{
			OFFSET 1.54859 -1.61379 0.86856
			CHANNELS 3 Zrotation Yrotation Xrotation
			JOINT LeftLeg
			{
				OFFSET 2.25087 -6.18423 0.00000
				CHANNELS 3 Zrotation Yrotation Xrotation
				JOINT LeftFoot
				{
					OFFSET 2.40328 -6.60297 0.00000
					CHANNELS 3 Zrotation Yrotation Xrotation
					JOINT LeftToeBase
					{
						OFFSET 0.17435 -0.47901 2.02453
						CHANNELS 3 Zrotation Yrotation Xrotation
						End Site
						{
							OFFSET 0.00000 -0.00000 1.04844
						}
					}
				}
			}
		}
	}
	JOINT RHipJoint
	{
		OFFSET 0 0 0
		CHANNELS 3 Zrotation Yrotation Xrotation
		JOINT RightUpLeg
		{
			OFFSET -1.54669 -1.61379 0.86856
			CHANNELS 3 Zrotation Yrotation Xrotation
			JOINT RightLeg
			{
				OFFSET -2.28132 -6.26789 0.00000
				CHANNELS 3 Zrotation Yrotation Xrotation
				JOINT RightFoot
				{
					OFFSET -2.51636 -6.91365 0.00000
					CHANNELS 3 Zrotation Yrotation Xrotation
					JOINT RightToeBase
					{
						OFFSET -0.15124 -0.41552 2.21090
						CHANNELS 3 Zrotation Yrotation Xrotation
						End Site
						{
							OFFSET -0.00000 -0.00000 1.13399
						}
					}
				}
			}
		}
	}
	JOINT LowerBack
	{
		OFFSET 0 0 0
		CHANNELS 3 Zrotation Yrotation Xrotation
		JOINT Spine
		{
			OFFSET -0.04287 2.26161 -0.25690
			CHANNELS 3 Zrotation Yrotation Xrotation
			JOINT Spine1
			{
				OFFSET 0.02248 2.28395 -0.10140
				CHANNELS 3 Zrotation Yrotation Xrotation
				JOINT Neck
				{
					OFFSET 0 0 0
					CHANNELS 3 Zrotation Yrotation Xrotation
					JOINT Neck1
					{
						OFFSET -0.11644 1.38496 0.11345
						CHANNELS 3 Zrotation Yrotation Xrotation
						JOINT Head
						{
							OFFSET 0.29383 1.36600 0.06642
							CHANNELS 3 Zrotation Yrotation Xrotation
							End Site
							{
								OFFSET 0.11075 1.41395 -0.00294
							}
						}
					}
				}
				JOINT LeftShoulder
				{
					OFFSET 0 0 0
					CHANNELS 3 Zrotation Yrotation Xrotation
					JOINT LeftArm
					{
						OFFSET 3.51628 0.59542 -0.30346
						CHANNELS 3 Zrotation Yrotation Xrotation
						JOINT LeftForeArm
						{
							OFFSET 4.76405 -0.00000 0.00000
							CHANNELS 3 Zrotation Yrotation Xrotation
							JOINT LeftHand
							{
								OFFSET 3.13759 -0.00000 -0.00000
								CHANNELS 3 Zrotation Yrotation Xrotation
								JOINT LeftFingerBase
								{
									OFFSET 0 0 0
									CHANNELS 3 Zrotation Yrotation Xrotation
									JOINT LeftHandIndex1
									{
										OFFSET 0.73226 -0.00000 -0.00000
										CHANNELS 3 Zrotation Yrotation Xrotation
										End Site
										{
											OFFSET 0.59037 -0.00000 -0.00000
										}
									}
								}
								JOINT LThumb
								{
									OFFSET 0 0 0
									CHANNELS 3 Zrotation Yrotation Xrotation
									End Site
									{
										OFFSET 0.59938 -0.00000 0.59938
									}
								}
							}
						}
					}
				}
				JOINT RightShoulder
				{
					OFFSET 0 0 0
					CHANNELS 3 Zrotation Yrotation Xrotation
					JOINT RightArm
					{
						OFFSET -3.30990 0.84213 -0.36430
						CHANNELS 3 Zrotation Yrotation Xrotation
						JOINT RightForeArm
						{
							OFFSET -5.10161 -0.00000 -0.00000
							CHANNELS 3 Zrotation Yrotation Xrotation
							JOINT RightHand
							{
								OFFSET -3.23267 -0.00000 -0.00000
								CHANNELS 3 Zrotation Yrotation Xrotation
								JOINT RightFingerBase
								{
									OFFSET 0 0 0
									CHANNELS 3 Zrotation Yrotation Xrotation
									JOINT RightHandIndex1
									{
										OFFSET -0.70200 -0.00000 -0.00000
										CHANNELS 3 Zrotation Yrotation Xrotation
										End Site
										{
											OFFSET -0.56597 -0.00000 -0.00000
										}
									}
								}
								JOINT RThumb
								{
									OFFSET 0 0 0
									CHANNELS 3 Zrotation Yrotation Xrotation
									End Site
									{
										OFFSET -0.57461 -0.00000 0.57461
									}
								}
							}
						}
					}
				}
			}
		}
	}
}
MOTION
Frames: 6
Frame Time: 0.0526316
0.00 0.00 0.00 -185.9450 37.2996 -175.0830 0.0000 0.0000 0.0000 -28.3110 4.6165 26.4156 3.6697 11.7074 34.7047 0.5034 6.7966 12.7896 1.8558 -8.5590 -24.4252 0.0000 0.0000 0.0000 9.3178 3.9632 -51.4450 -2.2836 -9.4334 27.1606 -0.0966 -6.6247 6.7655 -5.3936 13.8138 -42.4965 -12.5354 -1.0944 8.1242 0.2955 -1.6310 6.7656 7.4488 -1.1116 3.0632 -16.1828 -7.4262 -2.3234 21.7809 -8.6604 -7.6004 9.2924 -4.1486 0.0349 -0.0000 -0.0000 0.0000 -74.7602 -5.7166 24.8311 90.2892 -59.9997 -60.2505 -0.0000 0.0000 -32.0714 2.9159 30.0262 1.4600 -7.1250 0.0000 -0.0000 -30.9300 57.2277 -9.9024 -0.0000 -0.0000 0.0000 73.2110 8.3688 9.1284 -21.3463 32.2304 -6.2336 0.0000 0.0000 2.9108 -20.8902 21.4809 -7.9563 7.1250 -0.0000 -0.0000 4.9402 -7.2088 4.2976
0.00 0.00 0.00 -188.5930 37.7718 -179.6730 0.0000 0.0000 0.0000 -27.6087 8.6128 24.2307 7.0816 15.4002 49.1823 0.1471 9.7358 9.1065 2.0582 -8.9863 -25.7524 0.0000 0.0000 0.0000 11.6847 2.1037 -48.3177 -2.6872 -10.1707 29.5312 -0.2941 -3.5442 9.6384 -2.9321 10.5843 -30.8904 -15.0617 -0.7551 8.4637 -0.4945 -1.2025 7.2671 7.9977 -0.9813 3.4640 -15.1046 -7.1756 -1.9284 21.0074 -8.2358 -8.4853 8.9120 -3.9726 -0.4610 -0.0000 0.0000 0.0000 -72.4627 0.8688 22.4462 108.5577 -58.6579 -75.9990 -0.0000 0.0000 -41.4538 -5.8276 32.7652 -3.1616 -7.1250 0.0000 -0.0000 -41.6762 57.5816 -14.4962 -0.0000 0.0000 0.0000 70.4615 10.4807 10.3845 -21.2297 32.0955 -6.1715 0.0000 0.0000 2.0133 -21.1068 21.2228 -7.9546 7.1250 -0.0000 -0.0000 4.7812 -7.4449 4.1362
0.00 0.00 0.00 -186.7180 36.8092 -181.0550 0.0000 0.0000 0.0000 -20.1536 11.5271 17.5760 13.6891 19.0170 71.2526 -0.2631 12.5692 4.7176 0.8042 -5.7232 -15.9834 0.0000 0.0000 0.0000 16.1515 0.8400 -42.0102 -4.1007 -12.2932 36.7771 0.0647 4.6979 3.1248 -0.0011 -0.2159 0.5931 -12.1687 -0.4910 8.0689 -0.8081 -0.6474 7.2974 6.0122 -0.5740 3.4182 -16.0600 -7.2209 1.3230 21.2456 -8.4476 -10.7007 9.3573 -4.2485 -1.5420 0.0000 -0.0000 0.0000 -70.3080 8.3241 20.4877 126.8903 -54.1752 -91.3230 -0.0000 0.0000 -48.2275 -14.0309 34.6752 -8.0918 -7.1250 0.0000 -0.0000 -50.9724 57.1769 -18.3712 0.0000 -0.0000 0.0000 68.8335 13.0232 7.4878 -21.6931 32.6285 -6.4196 0.0000 0.0000 1.3819 -21.2521 21.0298 -7.9452 7.1250 -0.0000 -0.0000 4.6728 -7.6246 4.0252
0.00 0.00 0.00 -180.9840 34.1895 -179.3040 0.0000 0.0000 0.0000 -9.1837 9.8669 6.5513 21.3178 19.9583 93.8557 -0.0772 8.7525 4.5227 0.5817 -4.8836 -13.5768 0.0000 0.0000 0.0000 22.0164 3.1153 -35.2265 -6.4119 -14.8159 46.6131 -0.3711 0.3200 -11.4002 -0.0858 1.8890 -5.1990 -6.5492 0.1247 8.8681 0.8621 0.3088 7.1479 4.5676 0.1150 2.4925 -16.2855 -7.6049 4.1343 19.2959 -9.2477 -13.4915 8.9737 -4.6969 -2.7937 0.0000 -0.0000 0.0000 -72.4262 10.9760 19.0030 137.4926 -49.4873 -99.6745 -0.0000 0.0000 -54.1024 -22.7277 34.8091 -13.4477 -7.1250 0.0000 -0.0000 -58.3347 55.3908 -19.6322 0.0000 -0.0000 0.0000 67.7596 15.1530 6.1758 -22.0479 33.0311 -6.6119 0.0000 0.0000 1.1280 -21.3589 20.8284 -7.9163 7.1250 -0.0000 -0.0000 4.5880 -7.8191 3.9341
0.00 0.00 0.00 -177.3630 30.3619 -177.9290 0.0000 0.0000 0.0000 -14.1305 -11.3053 -34.6554 24.8647 19.4229 104.3560 -0.0883 5.9649 0.8185 0.2966 -3.5020 -9.6798 0.0000 0.0000 0.0000 30.4191 -10.5103 -7.2323 -4.1492 -12.3563 37.0045 -0.0597 7.0503 -6.2450 -1.3175 7.2699 -20.5174 -1.3322 4.9825 8.8166 0.4074 7.1241 6.8950 0.6717 3.7568 2.0415 -14.2036 -11.6238 8.8058 24.6642 -13.9242 -17.1807 10.7230 -7.5902 -3.4368 -0.0000 0.0000 0.0000 -88.3700 3.8078 17.9698 144.8311 -44.9324 -105.0675 -0.0000 0.0000 -68.5136 -25.5946 33.8487 -14.9389 -7.1250 0.0000 -0.0000 -59.5315 54.1943 -18.3160 -0.0000 0.0000 0.0000 77.2884 20.1603 12.8644 -21.0034 31.8323 -6.0517 0.0000 0.0000 3.0083 -21.4471 21.0522 -8.0323 7.1250 -0.0000 -0.0000 4.5506 -7.5711 3.9241
0.00 0.00 0.00 -178.1980 32.4370 -178.6500 0.0000 0.0000 0.0000 -16.0489 -14.2608 -38.5134 19.3359 19.9894 88.0581 -0.1203 6.6735 0.3534 0.2629 -3.2987 -9.1115 0.0000 0.0000 0.0000 28.4664 -12.4909 3.3561 -2.7595 -10.2951 29.9379 0.0262 5.6539 7.2393 -0.0363 -1.2293 3.3798 -0.7569 6.8290 8.0110 -1.0051 9.5959 6.3910 -1.1665 5.0231 2.2499 -14.6318 -12.5397 8.2502 25.6232 -15.3633 -15.5329 10.8354 -8.2912 -2.4371 0.0000 -0.0000 0.0000 -88.8002 1.9828 16.9767 147.4081 -43.0140 -106.8572 -0.0000 0.0000 -73.1132 -17.1018 34.1915 -9.8095 -7.1250 0.0000 -0.0000 -53.0610 56.1826 -18.0741 0.0000 -0.0000 0.0000 81.3357 18.5488 18.9294 -19.8228 30.4283 -5.4413 0.0000 0.0000 4.0861 -21.3829 21.4012 -8.1311 7.1250 -0.0000 -0.0000 4.6212 -7.2157 4.0176
